<?xml version="1.0" encoding="UTF-8"?>
<svg width="256px" height="256px" viewBox="0 0 256 256" version="1.1" xmlns="http://www.w3.org/2000/svg" xmlns:xlink="http://www.w3.org/1999/xlink">
    <title>Azure tts svg</title>
    <g id="caddy" stroke="none" stroke-width="1" fill="none" fill-rule="evenodd">
        <g id="azure-tts-trial" transform="translate(-412, -288)" fill-rule="nonzero">
            <g id="编组-4" transform="translate(412, 288)">
                <g id="Azure-tts-svg" transform="translate(0, 0)">
                    <path d="M127.6,6.4 C122.965703,6.4 119.2,9.76866548 119.2,13.8888845 L119.2,241.311116 C119.2,245.447325 122.976493,248.8 127.6,248.8 C132.088632,248.8 135.843545,245.457985 136,241.311116 L136,13.8888845 C136,9.75267498 132.228902,6.4 127.6,6.4 Z" id="路径" fill="#50E6FF"></path>
                    <path d="M90.4,47.2 C85.1061947,47.2 80.8,51.163904 80.8,56.022883 L80.8,198.377117 C80.8,203.236096 85.1061947,207.2 90.4,207.2 C95.6938053,207.2 100,203.236096 100,198.377117 L100,56.0388665 C100,51.163904 95.699115,47.2159835 90.4,47.2159835 L90.4,47.2 Z" id="路径" fill="#63C6F9"></path>
                    <path d="M52,88.8 C46.7061947,88.8 42.4,92.7660919 42.4,97.627753 L42.4,157.572247 C42.4,162.433908 46.700885,166.4 52,166.4 C57.2938053,166.4 61.4300885,162.647139 61.6,157.572247 L61.6,97.6437453 C61.6,92.7660919 57.2938053,88.8159923 52,88.8159923 L52,88.8 Z" id="路径" fill="#709AF0"></path>
                    <path d="M15.2,106.4 C9.90619469,106.4 5.6,110.389672 5.6,115.280238 L5.6,140.719762 C5.6,145.626415 9.90619469,149.6 15.2,149.6 C20.3238938,149.6 24.6300885,145.653227 24.8,140.719762 L24.8,115.280238 C24.8,110.389672 20.499115,106.4 15.2,106.4 Z" id="路径" fill="#773ADC"></path>
                    <path d="M165.6,47.2 C160.306195,47.2 156,51.163904 156,56.022883 L156,198.377117 C156,203.236096 160.306195,207.2 165.6,207.2 C170.893805,207.2 175.2,203.236096 175.2,198.377117 L175.2,56.0388665 C175.2,51.163904 170.899115,47.2159835 165.6,47.2159835 L165.6,47.2 Z" id="路径" fill="#63C6F9"></path>
                    <path d="M203.2,88.8 C197.906195,88.8 193.6,92.7660919 193.6,97.627753 L193.6,157.657539 C193.769912,162.631147 197.890265,166.4 203.2,166.4 C208.509735,166.4 212.8,162.433908 212.8,157.572247 L212.8,97.6437453 C212.8,92.7660919 208.493805,88.8159923 203.2,88.8159923 L203.2,88.8 Z" id="路径" fill="#709AF0"></path>
                    <path d="M240.792029,106.4 C235.493828,106.4 231.2,110.389672 231.2,115.280238 L231.2,140.719762 C231.2,145.626415 235.504456,149.6 240.792029,149.6 C246.074287,149.6 250.4,145.610328 250.4,140.719762 L250.4,115.280238 C250.4,110.389672 246.09023,106.4 240.792029,106.4 Z" id="路径" fill="#773ADC"></path>
                    <path d="M5.55701836,44.5590639 C4.19514828,44.5605234 2.88930092,44.0170379 1.93057881,43.0497623 C0.965347388,42.0896537 0.422248097,40.7846258 0.421339999,39.4231718 L0.421339999,5.11989245 C0.435985356,2.29210179 2.72931346,0.00582285698 5.55701836,0 L37.7363363,0 C39.0855852,0 40.397503,0.538655351 41.3467769,1.50930163 C42.3107503,2.4699737 42.8525867,3.7749318 42.8525867,5.13589211 C42.8525867,6.49685242 42.3107503,7.80181052 41.3467769,8.76248259 C40.3867082,9.72775419 39.0817347,10.2708761 37.7203373,10.2717842 L10.6873637,10.2717842 L10.6873637,39.4125054 C10.6867993,40.7756004 10.1504945,42.0838554 9.1941239,43.0550955 C8.23248682,44.0193471 6.92943257,44.5655029 5.56768435,44.5750636 L5.55168536,44.5590639 L5.55701836,44.5590639 Z M255.978668,5.12522567 C255.980127,3.76329891 255.436665,2.4573972 254.469429,1.49863518 C253.503465,0.544159056 252.20094,0.00780290157 250.84299,0.00532446053 L218.663672,0.00532446053 C217.301802,0.00387371768 215.995954,0.547359282 215.037232,1.51463485 C214.073259,2.47530692 213.531422,3.78026502 213.531422,5.14122533 C213.531422,6.50218564 214.073259,7.80714374 215.037232,8.76781581 C215.997635,9.73258923 217.302392,10.275621 218.663672,10.2771174 L245.637982,10.2771174 L245.637982,39.4178386 C245.635143,40.7850738 246.176995,42.0971281 247.143739,43.0639114 C248.110482,44.0306948 249.422481,44.5725699 250.78966,44.5697634 C252.156838,44.5725699 253.468838,44.0306948 254.435581,43.0639114 C255.402324,42.0971281 255.944176,40.7850738 255.941337,39.4178386 L256,39.4445047 L255.984001,39.4445047 L255.978668,5.12522567 Z M42.0827308,248.901438 C41.289634,246.986681 39.4194592,245.739846 37.3470274,245.744171 L10.3033878,245.744171 L10.3033878,216.592783 C10.3062272,215.225548 9.76437459,213.913494 8.79763148,212.94671 C7.83088838,211.979927 6.51888868,211.438052 5.15171041,211.440869 C3.78453214,211.438052 2.47253244,211.979927 1.50578933,212.94671 C0.539046219,213.913494 -0.0028063724,215.225548 1.09314464e-05,216.592783 L1.09314464e-05,250.880063 C0.0234582869,253.705753 2.32070821,255.983962 5.14637741,255.983962 L37.3256954,255.983962 C38.6875655,255.985415 39.9934128,255.44193 40.9521349,254.474654 C41.9173663,253.514546 42.4604656,252.209518 42.4613737,250.848064 L42.4773727,250.864063 L42.4827943,250.864063 C42.4855926,250.189326 42.3494372,249.521229 42.0827308,248.901438 Z M255.9947,216.592783 C255.997506,215.225548 255.455654,213.913494 254.488911,212.94671 C253.522168,211.979927 252.210168,211.438052 250.84299,211.440858 C249.475811,211.438052 248.163812,211.979927 247.197069,212.94671 C246.230325,213.913494 245.688473,215.225548 245.691312,216.592783 L245.691312,245.744171 L218.717002,245.744171 C218.042292,245.741284 217.374223,245.877445 216.754458,246.144163 C215.496362,246.662125 214.496492,247.660051 213.976051,248.917167 C213.45561,250.174284 213.457499,251.586968 213.981298,252.842688 C214.774395,254.757446 216.64457,256.004281 218.717002,255.999989 L250.89632,255.999989 C252.244799,255.986687 253.53322,255.440236 254.480095,254.479987 C255.435904,253.52578 255.97311,252.230677 255.973335,250.880063 L255.989334,250.864063 L255.9947,216.592783 Z" id="形状" fill="#773ADC"></path>
                </g>
            </g>
        </g>
    </g>
</svg>